<?xml version="1.0" encoding="UTF-8"?>
<svg id="Full-Color" xmlns="http://www.w3.org/2000/svg" viewBox="0 0 423.35 63.34">
  <defs>
    <style>
      .cls-1 {
        fill: #fff;
      }
    </style>
  </defs>
  <path class="cls-1" d="M8.08,14.27c-.28-.64-.81-1.09-1.59-1.35-.78-.25-2.02-.38-3.73-.38-.14,0-.21-.14-.21-.41s.07-.41.21-.41l3.52.07c1.93.09,3.54.14,4.83.14,1.43,0,3.2-.04,5.31-.14l3.52-.07c.09,0,.14.14.14.41s-.05.41-.14.41c-1.75,0-3.04.14-3.86.41-.83.28-1.39.75-1.69,1.41-.3.67-.45,1.69-.45,3.07v31.81c0,1.38.15,2.4.45,3.07.3.67.85,1.12,1.66,1.35.8.23,2.1.34,3.9.34.09,0,.14.14.14.41s-.05.41-.14.41c-1.52,0-2.69-.02-3.52-.07l-5.31-.07-4.9.07c-.87.05-2.07.07-3.59.07-.09,0-.14-.14-.14-.41s.04-.41.14-.41c1.7,0,2.96-.11,3.76-.34.8-.23,1.36-.68,1.66-1.35.3-.67.45-1.69.45-3.07v-31.95c0-1.38-.14-2.39-.41-3.04ZM11.04,31.59h30.5v1.59H11.04v-1.59ZM38.71,14.37c-.28-.67-.83-1.14-1.66-1.41-.83-.28-2.12-.41-3.86-.41-.14,0-.21-.14-.21-.41s.07-.41.21-.41l3.24.07c2.12.09,3.93.14,5.45.14,1.29,0,2.94-.04,4.97-.14l3.52-.07c.14,0,.21.14.21.41s-.07.41-.21.41c-1.7,0-2.96.13-3.76.38-.81.25-1.35.7-1.62,1.35-.28.64-.41,1.66-.41,3.04v31.95c0,1.38.14,2.4.41,3.07.28.67.82,1.12,1.62,1.35.8.23,2.06.34,3.76.34.14,0,.21.14.21.41s-.07.41-.21.41c-1.47,0-2.65-.02-3.52-.07l-4.97-.07-5.45.07c-.78.05-1.86.07-3.24.07-.14,0-.21-.14-.21-.41s.07-.41.21-.41c1.79,0,3.09-.11,3.9-.34.8-.23,1.35-.67,1.62-1.31.28-.64.41-1.68.41-3.1v-31.81c0-1.38-.14-2.4-.41-3.07Z"/>
  <path class="cls-1" d="M65.5,52.35c.25.65.76,1.08,1.52,1.31.76.23,1.99.34,3.69.34.09,0,.14.14.14.41s-.05.41-.14.41c-1.47,0-2.62-.02-3.45-.07l-4.97-.07-4.83.07c-.87.05-2.07.07-3.59.07-.09,0-.14-.14-.14-.41s.05-.41.14-.41c1.66,0,2.87-.11,3.66-.34.78-.23,1.32-.68,1.62-1.35.3-.67.45-1.69.45-3.07v-31.95c0-1.38-.15-2.39-.45-3.04-.3-.64-.84-1.09-1.62-1.35-.78-.25-2-.38-3.66-.38-.09,0-.14-.14-.14-.41s.05-.41.14-.41l3.59.07c2.02.09,3.63.14,4.83.14,1.33,0,3.01-.04,5.04-.14l3.38-.07c.09,0,.14.14.14.41s-.05.41-.14.41c-1.66,0-2.86.14-3.62.41-.76.28-1.28.75-1.55,1.41-.28.67-.41,1.69-.41,3.07v31.81c0,1.43.13,2.46.38,3.1Z"/>
  <path class="cls-1" d="M84.52,52.66c-3.79-2-6.69-4.71-8.69-8.14-2-3.43-3-7.21-3-11.35,0-4.42,1.14-8.3,3.42-11.66,2.28-3.36,5.4-5.96,9.38-7.8,3.98-1.84,8.45-2.76,13.42-2.76,2.35,0,4.6.22,6.76.66,2.16.44,3.96,1.02,5.38,1.76.37.18.59.34.66.48s.13.51.17,1.1l.9,8.56c0,.14-.13.23-.38.28-.25.05-.4-.02-.45-.21-.97-3.22-2.68-5.92-5.14-8.11-2.46-2.18-5.67-3.28-9.63-3.28-3.45,0-6.56.8-9.31,2.42-2.76,1.61-4.93,3.92-6.52,6.93-1.59,3.01-2.38,6.52-2.38,10.52s.8,7.79,2.42,11.21c1.61,3.43,3.97,6.18,7.07,8.25,3.1,2.07,6.8,3.1,11.07,3.1,3.13,0,5.31-.61,6.55-1.83,1.24-1.22,1.86-3.42,1.86-6.59,0-2.39-.15-4.06-.45-5-.3-.94-.94-1.58-1.93-1.9-.99-.32-2.73-.48-5.21-.48-.28,0-.41-.18-.41-.55,0-.14.03-.26.1-.38.07-.11.15-.17.24-.17,3.68.23,6.67.35,8.97.35s4.58-.07,6.97-.21c.09,0,.17.06.24.17.07.12.1.22.1.31,0,.32-.12.48-.35.48-1.06-.05-1.79.1-2.21.45s-.68,1.05-.79,2.1c-.12,1.06-.17,2.9-.17,5.52,0,2.07.08,3.54.24,4.42.16.87.24,1.43.24,1.66,0,.28-.05.46-.14.55-.09.09-.3.18-.62.28-5.8,1.24-10.81,1.86-15.04,1.86-5.11,0-9.56-1-13.35-3Z"/>
  <path class="cls-1" d="M123.45,14.27c-.28-.64-.81-1.09-1.59-1.35-.78-.25-2.02-.38-3.73-.38-.14,0-.21-.14-.21-.41s.07-.41.21-.41l3.52.07c1.93.09,3.54.14,4.83.14,1.43,0,3.2-.04,5.31-.14l3.52-.07c.09,0,.14.14.14.41s-.05.41-.14.41c-1.75,0-3.04.14-3.86.41-.83.28-1.39.75-1.69,1.41-.3.67-.45,1.69-.45,3.07v31.81c0,1.38.15,2.4.45,3.07.3.67.85,1.12,1.66,1.35.8.23,2.1.34,3.9.34.09,0,.14.14.14.41s-.05.41-.14.41c-1.52,0-2.69-.02-3.52-.07l-5.31-.07-4.9.07c-.87.05-2.07.07-3.59.07-.09,0-.14-.14-.14-.41s.04-.41.14-.41c1.7,0,2.96-.11,3.76-.34.8-.23,1.36-.68,1.66-1.35.3-.67.45-1.69.45-3.07v-31.95c0-1.38-.14-2.39-.41-3.04ZM126.42,31.59h30.5v1.59h-30.5v-1.59ZM154.09,14.37c-.28-.67-.83-1.14-1.66-1.41-.83-.28-2.12-.41-3.86-.41-.14,0-.21-.14-.21-.41s.07-.41.21-.41l3.24.07c2.12.09,3.93.14,5.45.14,1.29,0,2.94-.04,4.97-.14l3.52-.07c.14,0,.21.14.21.41s-.07.41-.21.41c-1.7,0-2.96.13-3.76.38-.81.25-1.35.7-1.62,1.35-.28.64-.41,1.66-.41,3.04v31.95c0,1.38.14,2.4.41,3.07.28.67.82,1.12,1.62,1.35.8.23,2.06.34,3.76.34.14,0,.21.14.21.41s-.07.41-.21.41c-1.47,0-2.65-.02-3.52-.07l-4.97-.07-5.45.07c-.78.05-1.86.07-3.24.07-.14,0-.21-.14-.21-.41s.07-.41.21-.41c1.79,0,3.09-.11,3.9-.34.8-.23,1.35-.67,1.62-1.31.28-.64.41-1.68.41-3.1v-31.81c0-1.38-.14-2.4-.41-3.07Z"/>
  <path class="cls-1" d="M169.02,54.42c0-.28.07-.41.21-.41,1.66,0,2.86-.11,3.62-.34.76-.23,1.28-.68,1.55-1.35.28-.67.41-1.69.41-3.07v-31.95c0-1.38-.14-2.39-.41-3.04-.28-.64-.79-1.09-1.55-1.35-.76-.25-1.97-.38-3.62-.38-.14,0-.21-.14-.21-.41s.07-.41.21-.41h28.15c.46,0,.69.21.69.62l.14,8.69c0,.14-.13.22-.38.24-.25.02-.4-.03-.45-.17-.32-2.53-1.22-4.46-2.69-5.8-1.47-1.33-3.4-2-5.79-2h-3.52c-2.03,0-3.38.3-4.07.9s-1.04,1.72-1.04,3.38v31.39c0,1.66.31,2.78.93,3.38.62.6,1.87.9,3.76.9h4.55c2.58,0,4.73-.77,6.45-2.31,1.72-1.54,2.91-3.74,3.55-6.59,0-.09.09-.14.28-.14.14,0,.26.03.38.1.11.07.17.13.17.17-.46,3.31-.69,6.42-.69,9.31,0,.37-.07.63-.21.79s-.41.24-.83.24h-29.39c-.14,0-.21-.14-.21-.41ZM193.06,34.59c-1.13-.94-2.91-1.41-5.35-1.41h-10.07v-1.59h10.21c2.35,0,4.07-.4,5.18-1.21,1.1-.8,1.65-2.06,1.65-3.76,0-.09.13-.14.38-.14s.38.05.38.14l-.07,5.8.07,3.1c.09,1.47.14,2.62.14,3.45,0,.09-.14.14-.41.14s-.41-.04-.41-.14c0-1.98-.56-3.44-1.69-4.38Z"/>
  <path class="cls-1" d="M230.68,13.92c2.07,1.61,3.1,3.79,3.1,6.55,0,2.48-.72,4.75-2.17,6.8-1.45,2.05-3.37,3.66-5.76,4.83-2.39,1.17-4.95,1.76-7.66,1.76-.97,0-2.09-.05-3.38-.14v15.53c0,1.38.14,2.4.41,3.07.28.67.79,1.12,1.55,1.35.76.23,1.97.34,3.62.34.14,0,.21.14.21.41s-.07.41-.21.41c-1.43,0-2.55-.02-3.38-.07l-4.97-.07-4.83.07c-.88.05-2.05.07-3.52.07-.14,0-.21-.14-.21-.41s.07-.41.21-.41c1.66,0,2.87-.11,3.66-.34.78-.23,1.31-.68,1.59-1.35.28-.67.41-1.69.41-3.07v-31.95c0-1.38-.14-2.39-.41-3.04-.28-.64-.79-1.09-1.55-1.35-.76-.25-1.97-.38-3.62-.38-.09,0-.14-.14-.14-.41s.04-.41.14-.41l3.45.07c2.02.09,3.63.14,4.83.14.97,0,1.88-.02,2.76-.07.87-.04,1.63-.09,2.28-.14,1.75-.14,3.33-.21,4.76-.21,3.82,0,6.76.81,8.83,2.42ZM225.99,14.92c-1.43-1.5-3.52-2.24-6.28-2.24-1.79,0-3.06.33-3.79,1-.74.67-1.1,1.92-1.1,3.76v14.56c1.33.14,2.69.21,4.07.21,3.31,0,5.68-.77,7.11-2.31,1.43-1.54,2.14-3.94,2.14-7.21,0-3.68-.71-6.27-2.14-7.76ZM232.1,49.04c-3.1-3.86-6.87-9.27-11.28-16.21l4.62-1.45c3.91,5.75,7.2,10.24,9.87,13.46,2.67,3.22,5.02,5.55,7.07,7,2.05,1.45,4.04,2.17,5.97,2.17.14,0,.21.14.21.41s-.07.41-.21.41h-9.87c-1.15,0-3.28-1.93-6.38-5.8Z"/>
  <path class="cls-1" d="M274.19,51.77c.25.58.72.97,1.41,1.17.69.21,1.77.31,3.24.31h5.87c2.9,0,5.3-.86,7.21-2.59,1.91-1.72,3.19-4.06,3.83-7,0-.14.13-.2.38-.17.25.02.38.1.38.24-.41,4.05-.62,7.41-.62,10.07,0,.37-.08.63-.24.79-.16.16-.43.24-.79.24h-32.15c-.09,0-.14-.14-.14-.41s.05-.41.14-.41c1.66,0,2.87-.11,3.66-.34.78-.23,1.31-.68,1.59-1.35.28-.67.41-1.69.41-3.07v-31.95c0-1.38-.14-2.39-.41-3.04-.28-.64-.81-1.09-1.59-1.35-.78-.25-2-.38-3.66-.38-.09,0-.14-.14-.14-.41s.05-.41.14-.41l3.45.07c2.02.09,3.66.14,4.9.14s2.87-.04,4.9-.14l3.45-.07c.09,0,.14.14.14.41s-.05.41-.14.41c-1.66,0-2.86.13-3.62.38-.76.25-1.28.71-1.55,1.38-.28.67-.41,1.69-.41,3.07v31.6c0,1.29.13,2.22.38,2.79Z"/>
  <path class="cls-1" d="M308.73,52.66c-3.34-2-5.91-4.71-7.73-8.14-1.82-3.43-2.73-7.16-2.73-11.21,0-4.74,1.2-8.8,3.59-12.18,2.39-3.38,5.46-5.92,9.21-7.62,3.75-1.7,7.58-2.55,11.49-2.55,4.37,0,8.21,1.02,11.52,3.07,3.31,2.05,5.85,4.75,7.62,8.11,1.77,3.36,2.66,6.92,2.66,10.7,0,4.19-1.1,8.03-3.31,11.52-2.21,3.5-5.16,6.26-8.87,8.28-3.7,2.02-7.72,3.04-12.04,3.04s-8.08-1-11.42-3ZM330.49,51.87c2.35-1.52,4.2-3.74,5.55-6.66,1.36-2.92,2.04-6.4,2.04-10.45,0-4.28-.75-8.1-2.24-11.45-1.5-3.36-3.63-5.98-6.42-7.87-2.78-1.88-6.01-2.83-9.69-2.83-4.78,0-8.51,1.62-11.18,4.86-2.67,3.24-4,7.72-4,13.42,0,4.37.76,8.33,2.28,11.87,1.52,3.54,3.65,6.33,6.38,8.35,2.74,2.02,5.85,3.04,9.35,3.04,2.94,0,5.59-.76,7.93-2.28Z"/>
  <path class="cls-1" d="M387.77,12.13c0,.28-.07.41-.21.41-3.31,0-5.8,2.09-7.45,6.28l-14.08,35.95c-.05.18-.3.28-.76.28s-.71-.09-.76-.28l-17.32-37.33c-.83-1.75-1.67-3-2.52-3.76-.85-.76-1.9-1.14-3.14-1.14-.14,0-.21-.14-.21-.41s.07-.41.21-.41l2.14.07c1.2.09,2.32.14,3.38.14,2.48,0,4.88-.04,7.18-.14.74-.05,1.68-.07,2.83-.07.14,0,.21.14.21.41s-.07.41-.21.41c-2.85,0-4.28.87-4.28,2.62,0,.74.23,1.56.69,2.48l14.15,30.77-2.48,4,13.32-33.95c.37-1.01.55-1.86.55-2.55,0-2.25-1.75-3.38-5.24-3.38-.14,0-.21-.14-.21-.41s.07-.41.21-.41l3.11.07c1.75.09,3.27.14,4.55.14.97,0,2.05-.04,3.24-.14l2.9-.07c.14,0,.21.14.21.41Z"/>
  <path class="cls-1" d="M389.54,54.42c0-.28.07-.41.21-.41,1.66,0,2.86-.11,3.62-.34.76-.23,1.28-.68,1.55-1.35.28-.67.41-1.69.41-3.07v-31.95c0-1.38-.14-2.39-.41-3.04-.28-.64-.79-1.09-1.55-1.35-.76-.25-1.97-.38-3.62-.38-.14,0-.21-.14-.21-.41s.07-.41.21-.41h28.15c.46,0,.69.21.69.62l.14,8.69c0,.14-.13.22-.38.24-.25.02-.4-.03-.45-.17-.32-2.53-1.22-4.46-2.69-5.8-1.47-1.33-3.4-2-5.8-2h-3.52c-2.03,0-3.38.3-4.07.9s-1.04,1.72-1.04,3.38v31.39c0,1.66.31,2.78.93,3.38.62.6,1.87.9,3.76.9h4.55c2.58,0,4.73-.77,6.45-2.31,1.73-1.54,2.91-3.74,3.55-6.59,0-.09.09-.14.28-.14.14,0,.26.03.38.1.11.07.17.13.17.17-.46,3.31-.69,6.42-.69,9.31,0,.37-.07.63-.21.79-.14.16-.41.24-.83.24h-29.39c-.14,0-.21-.14-.21-.41ZM413.58,34.59c-1.13-.94-2.91-1.41-5.35-1.41h-10.07v-1.59h10.21c2.35,0,4.07-.4,5.18-1.21,1.1-.8,1.66-2.06,1.66-3.76,0-.09.13-.14.38-.14s.38.05.38.14l-.07,5.8.07,3.1c.09,1.47.14,2.62.14,3.45,0,.09-.14.14-.41.14s-.41-.04-.41-.14c0-1.98-.56-3.44-1.69-4.38Z"/>
</svg>